<svg fill="none" height="500" viewBox="0 0 700 500" width="700" xmlns="http://www.w3.org/2000/svg"><path d="m124.73 580.661c22.477-45.102 71.903-93.515 132.109-118.217 60.205-24.702 150.291-46.113 206.81-74.526 85.199-42.861 127.799-88.043 166.727-154.795s88.946-184.609 109.01-255.123c68.956 97.3569 64.336 255.533 41.459 362.355-3.213 15.007-7.611 30.344-20.241 42.83-10.365 10.245-25.498 17.769-40.32 25.092l-430.322 212.473c-35.226 17.398-77.707 35.717-119.404 27.013-40.083-8.344-61.183-44.251-40.482-68.903" fill="#0575db"/><path d="m0 688s99.9941-215.944 359.831-238.794c259.837-22.85 352.607-130.198 373.568-157.634s96.871-145.874 221.601-148.572v545z" fill="#0086ff"/></svg>