<svg width="907" height="500" viewBox="0 0 907 500" fill="none" xmlns="http://www.w3.org/2000/svg"><path d="M745.569 -159.123C716.478 -106.653 652.509 -50.3299 574.589 -21.5921C496.668 7.14558 380.075 32.0539 306.927 65.1099C196.658 114.973 141.523 167.537 91.1416 245.195C40.7597 322.853 -23.9761 459.965 -49.9432 542C-139.189 428.737 -133.21 244.718 -103.602 120.444C-99.4435 102.985 -93.7517 85.1413 -77.4049 70.6153C-63.9902 58.6966 -44.4047 49.9437 -25.2217 41.4237L531.719 -205.763C577.31 -226.004 632.291 -247.315 686.257 -237.189C738.133 -227.482 765.442 -185.708 738.651 -157.028" fill="#0575DB"/><path d="M907 -284C907 -284 777.584 -32.7751 441.292 -6.19149C105.001 20.3921 -15.0665 145.278 -42.1951 177.197C-69.3238 209.116 -167.569 346.904 -329 350.042V-284H907Z" fill="#0086FF"/></svg>