<svg fill="none" height="120" viewBox="0 0 431 120" width="431" xmlns="http://www.w3.org/2000/svg"><g fill="#222428"><path d="m187.339 102.121c-8.374 0-15.568-1.663-21.582-4.9909-5.938-3.4032-10.505-8.1676-13.703-14.2932-3.197-6.2013-4.796-13.4991-4.796-21.8935s1.599-15.6544 4.796-21.7801c3.198-6.1256 7.765-10.8522 13.703-14.1797 6.014-3.4031 13.208-5.1047 21.582-5.1047 4.187 0 8.298.5294 12.332 1.5881 4.035 1.0588 7.575 2.5713 10.62 4.5376 1.979 1.2856 3.159 2.8359 3.54 4.6509.38 1.7394.152 3.3653-.685 4.8778-.838 1.4369-2.094 2.42-3.769 2.9494-1.674.4538-3.54 0-5.595-1.3612-2.36-1.5125-4.91-2.6091-7.651-3.2897-2.74-.6807-5.519-1.021-8.335-1.021-8.146 0-14.35 2.4578-18.613 7.3735-4.263 4.84-6.395 11.7597-6.395 20.7591s2.132 15.9569 6.395 20.8726c4.263 4.9156 10.467 7.3734 18.613 7.3734 2.892 0 5.747-.3403 8.564-1.0209 2.816-.7563 5.481-1.8906 7.993-3.4031 2.055-1.2857 3.882-1.7016 5.481-1.2479 1.599.4538 2.779 1.3991 3.54 2.836.837 1.3612 1.104 2.8737.799 4.5375-.304 1.6637-1.332 3.1384-3.083 4.4241-3.045 2.1931-6.699 3.8947-10.962 5.1049-4.187 1.134-8.45 1.701-12.789 1.701z"/><path d="m248.954 102.121c-5.785 0-10.81-1.172-15.073-3.5162-4.263-2.3444-7.574-5.6719-9.934-9.9826-2.36-4.3862-3.54-9.5287-3.54-15.4275s1.18-11.0035 3.54-15.3141c2.36-4.3107 5.671-7.6382 9.934-9.9825 4.263-2.3444 9.288-3.5166 15.073-3.5166 5.786 0 10.81 1.1722 15.073 3.5166 4.263 2.3443 7.575 5.6718 9.935 9.9825 2.36 4.3106 3.54 9.4153 3.54 15.3141s-1.18 11.0413-3.54 15.4275c-2.36 4.3107-5.672 7.6382-9.935 9.9826-4.263 2.3442-9.287 3.5162-15.073 3.5162zm0-10.7763c4.263 0 7.689-1.5125 10.277-4.5375 2.589-3.1006 3.883-7.6381 3.883-13.6125 0-6.05-1.294-10.5497-3.883-13.4991-2.588-3.025-6.014-4.5375-10.277-4.5375s-7.688 1.5125-10.277 4.5375c-2.588 2.9494-3.882 7.4491-3.882 13.4991 0 5.9744 1.294 10.5119 3.882 13.6125 2.589 3.025 6.014 4.5375 10.277 4.5375z"/><path d="m309.729 102.121c-12.713 0-19.069-7.0706-19.069-21.2125v-53.6561c0-4.7644 2.36-7.1466 7.08-7.1466 4.795 0 7.193 2.3822 7.193 7.1466v52.9754c0 6.8063 2.855 10.2094 8.565 10.2094h1.713c.532-.0756 1.065-.1512 1.598-.2268 1.066-.1513 1.789.1512 2.17.9075.38.6806.571 2.1175.571 4.3106 0 1.8906-.381 3.3653-1.142 4.4241-.761 1.0584-2.018 1.7014-3.768 1.9284-1.599.227-3.236.34-4.911.34z"/><path d="m347.571 102.121c-12.713 0-19.069-7.0706-19.069-21.2125v-53.6561c0-4.7644 2.359-7.1466 7.079-7.1466 4.796 0 7.194 2.3822 7.194 7.1466v52.9754c0 6.8063 2.855 10.2094 8.564 10.2094h1.713c.533-.0756 1.066-.1512 1.599-.2268 1.066-.1513 1.789.1512 2.17.9075.38.6806.571 2.1175.571 4.3106 0 1.8906-.381 3.3653-1.142 4.4241-.762 1.0584-2.018 1.7014-3.769 1.9284-1.598.227-3.235.34-4.91.34z"/><path d="m370.454 101.894c-1.903 0-3.464-.491-4.682-1.474-1.218-1.059-1.941-2.3446-2.169-3.8571-.152-1.5881.38-3.1763 1.598-4.7644l23.752-31.5357-22.495-29.9476c-1.218-1.6638-1.751-3.2519-1.599-4.7644.152-1.5881.837-2.8738 2.055-3.8569 1.218-1.0587 2.741-1.5881 4.568-1.5881 2.817 0 5.367 1.5503 7.651 4.6509l18.156 24.9564 18.156-24.9564c2.284-3.1006 4.872-4.6509 7.765-4.6509 1.903 0 3.463.4915 4.681 1.4747 1.219.9831 1.904 2.2687 2.056 3.8569.152 1.5125-.419 3.1384-1.713 4.8778l-22.495 29.9476 23.637 31.5357c1.218 1.5881 1.751 3.1763 1.599 4.7644-.153 1.5125-.838 2.7981-2.056 3.8571-1.218.983-2.816 1.474-4.796 1.474-2.74 0-5.291-1.588-7.65-4.7639l-19.184-26.0907-19.07 26.0907c-2.36 3.1759-4.948 4.7639-7.765 4.7639z"/></g><path d="m14.2829 29.8927-10.17643-1.4673c-2.1659-.3123-4.10647 1.36-4.10647 3.5388v56.3528c0 2.3311 2.20438 4.0389 4.47407 3.4662l10.17643-2.5678c1.5933-.4021 2.7092-1.8297 2.7092-3.4662v-52.3177c0-1.7768-1.3105-3.2841-3.0768-3.5388z" fill="#0086ff"/><path d="m36.1329 12.7567 18.8562 4.9844c1.5741.4161 2.67 1.8346 2.67 3.4561v76.2531c0 1.424-.8486 2.7117-2.1604 3.2797l-18.8563 8.156c-2.372 1.026-5.0229-.704-5.0229-3.279v-89.3943c0-2.3478 2.2341-4.0585 4.5134-3.456z" fill="#0086ff"/><path d="m77.829 1.24942 24.436 13.05718c1.166.6229 1.893 1.8334 1.893 3.1506v78.1624c0 1.06-.472 2.0655-1.289 2.7449l-24.4366 20.3115c-2.3388 1.943-5.8936.288-5.8936-2.745v-111.53094c0-2.70355 2.8975-4.4291673 5.2902-3.15064z" fill="#0086ff"/></svg>