<svg fill="none" height="500" viewBox="0 0 907 500" width="907" xmlns="http://www.w3.org/2000/svg"><path d="m745.569-159.123c-29.091 52.47-93.06 108.7931-170.98 137.5309-77.921 28.73768-194.514 53.646-267.662 86.702-110.269 49.8631-165.404 102.4271-215.7854 180.0851-50.3819 77.658-115.1177 214.77-141.0848 296.805-89.2458-113.263-83.2668-297.282-53.6588-421.556 4.1585-17.459 9.8503-35.3027 26.1971-49.8287 13.4147-11.9187 33.0002-20.6716 52.1832-29.1916l556.9407-247.1867c45.591-20.241 100.572-41.552 154.538-31.426 51.876 9.707 79.185 51.481 52.394 80.161" fill="#0575db"/><path d="m907-284s-129.416 251.2249-465.708 277.80851c-336.291 26.58359-456.3585 151.46949-483.4871 183.38849-27.1287 31.919-125.3739 169.707-286.8049 172.845v-634.042z" fill="#0086ff"/></svg>