<svg width="700" height="500" viewBox="0 0 700 500" fill="none" xmlns="http://www.w3.org/2000/svg">
<path d="M124.73 580.661C147.207 535.559 196.633 487.146 256.839 462.444C317.044 437.742 407.13 416.331 463.649 387.918C548.848 345.057 591.448 299.875 630.376 233.123C669.304 166.371 719.322 48.514 739.386 -22C808.342 75.3569 803.722 233.533 780.845 340.355C777.632 355.362 773.234 370.699 760.604 383.185C750.239 393.43 735.106 400.954 720.284 408.277L289.962 620.75C254.736 638.148 212.255 656.467 170.558 647.763C130.475 639.419 109.375 603.512 130.076 578.86" fill="#0575DB"/>
<path d="M0 688C0 688 99.9941 472.056 359.831 449.206C619.668 426.356 712.438 319.008 733.399 291.572C754.36 264.136 830.27 145.698 955 143V688H0Z" fill="#0086FF"/>
</svg>
